<svg fill="#1a1616" viewBox="-25.88 -27.5 1345.76 577.99" xmlns="http://www.w3.org/2000/svg">
<g filter="url(#filter0_i_16743_6757)">
<path d="M1241.13 46.9038V9.49882H1230.98V1.20703H1259.25V9.49714H1249.08V46.9021L1241.13 46.9038Z" fill="#1a1616"/>
<path d="M1265.68 46.9006V1.20382H1276.26L1278.83 18.1103C1279.26 20.983 1279.68 26.0741 1279.79 28.2944H1280.15C1280.26 26.0741 1280.47 21.1134 1280.94 18.1756L1283.62 1.20215H1294V46.8973H1287.52V21.3761C1287.52 18.9602 1287.63 14.5215 1287.67 9.75661H1287.2C1286.84 13.869 1286.31 19.0272 1285.99 21.1804L1283.53 38.0885H1276.42L1273.83 21.5719C1273.42 19.0255 1272.88 13.8038 1272.46 9.75661H1271.99C1272.04 14.5215 1272.15 19.2882 1272.15 21.7024V46.9006H1265.68Z" fill="#1a1616"/>
<path d="M0 510.15C0 505.25 2.83255 503.151 9.20538 501.753L25.493 498.953C42.4899 496.154 49.5705 488.456 49.5705 471.662V60.1812C49.5705 40.5878 45.3209 36.3883 25.493 32.89L9.20538 30.0909C2.83255 28.6905 0 26.5908 0 21.6921C0 16.7932 3.54027 13.9941 10.6225 13.9941H153.672C264.147 13.9941 333.547 116.864 333.547 268.02C333.547 419.176 260.607 517.848 146.59 517.848H10.6225C3.54027 517.848 0 515.048 0 510.15ZM278.312 268.02C278.312 118.963 235.82 32.189 153.675 32.189C118.974 32.189 99.8522 49.6843 99.8522 83.2748V448.568C99.8522 485.658 114.017 499.654 149.425 499.654C232.989 499.654 278.312 418.476 278.312 268.02Z" fill="#1a1616"/>
<path d="M350.543 456.272C350.543 396.79 412.153 342.906 497.842 315.614C504.215 313.513 507.047 309.315 507.047 303.715V240.035C507.047 195.248 491.467 177.753 467.39 177.753C443.312 177.753 422.775 197.348 414.277 246.332C409.32 276.424 390.907 289.019 375.328 289.019C363.289 289.019 355.497 282.02 355.497 269.425C355.497 214.841 424.9 156.759 485.093 156.759C530.415 156.759 555.201 182.652 555.201 237.236V451.374C555.201 471.668 560.865 480.764 570.073 480.764C582.111 480.764 594.859 466.068 594.859 426.879C594.859 419.181 599.108 415.683 604.064 415.683C609.019 415.683 612.561 419.181 612.561 427.581C612.561 495.46 584.235 524.153 553.783 524.153C531.121 524.153 517.666 503.158 513.418 477.966C512.003 468.867 503.504 468.168 497.131 477.267C474.469 508.058 453.224 524.153 418.523 524.153C378.867 524.153 350.543 497.561 350.543 456.272ZM507.047 395.39V344.305C507.047 336.607 501.383 333.108 492.177 336.607C434.814 357.6 401.532 393.291 401.532 443.676C401.532 475.166 414.279 491.96 437.649 491.96C473.765 491.96 507.047 449.974 507.047 395.39Z" fill="#1a1616"/>
<path d="M689.045 516.443L594.858 207.833C587.776 185.439 583.528 181.94 570.78 179.141L560.157 177.042C553.783 175.641 550.953 172.843 550.953 167.943C550.953 163.744 554.493 160.945 560.866 160.945H677.715C684.088 160.945 687.628 163.744 687.628 167.943C687.628 172.843 684.088 176.34 678.422 177.042L667.092 178.442C644.43 181.241 640.182 187.538 645.848 207.833L704.625 410.073C707.458 420.57 715.956 420.57 718.788 410.073L776.15 220.428C783.94 195.235 782.523 184.038 759.153 179.839L744.282 177.039C738.617 175.64 735.075 172.84 735.075 167.942C735.075 163.743 738.616 160.943 744.991 160.943H834.928C842.008 160.943 844.842 164.442 844.842 168.641C844.842 172.84 842.717 176.339 836.344 178.439L829.972 180.538C815.807 185.437 806.602 195.235 797.396 224.626L707.459 516.44C705.334 522.738 701.794 524.138 698.254 524.138C694.714 524.138 691.168 522.741 689.045 516.443Z" fill="#1a1616"/>
<path d="M835.626 510.158C835.626 505.959 838.458 503.16 844.833 501.761L853.331 500.362C876.7 496.863 880.949 490.564 880.949 470.97V235.839C880.949 219.043 876.7 214.845 863.245 212.745L848.375 210.645C841.293 209.946 839.168 207.148 839.168 202.947C839.168 198.748 842.708 196.649 850.499 195.249C879.534 191.05 895.114 180.553 912.108 165.16C916.358 160.961 919.19 158.862 922.731 158.862C926.981 158.862 929.103 161.661 929.103 167.259V470.97C929.103 490.564 933.352 497.562 949.639 499.661L967.344 501.761C972.301 502.461 975.134 505.26 975.134 509.459C975.134 515.057 971.594 517.856 964.512 517.856H846.247C839.165 517.856 835.626 515.057 835.626 510.158ZM870.326 57.3915C870.326 35.6983 885.906 21.002 905.734 21.002C925.561 21.002 940.434 35.6983 940.434 57.3915C940.434 79.0846 925.564 94.4803 905.734 94.4803C885.904 94.4803 870.326 79.0846 870.326 57.3915Z" fill="#1a1616"/>
<path d="M961.665 354.797C961.665 237.931 1021.86 156.755 1104.72 156.755C1118.17 156.755 1130.92 158.854 1143.66 164.452C1150.75 167.95 1155 166.551 1155 159.553V69.9799C1155 53.1855 1150.75 48.2867 1137.29 46.8864L1118.88 44.7867C1113.92 44.0874 1111.09 40.5872 1111.09 36.3895C1111.09 32.1917 1113.92 28.6916 1118.88 27.9923C1148.62 22.3942 1166.33 14.6964 1178.37 6.99849C1186.16 2.09971 1191.11 0 1195.36 0C1200.32 0 1203.15 3.49841 1203.15 11.1963V451.367C1203.15 471.661 1208.82 480.758 1218.03 480.758C1230.06 480.758 1242.81 466.061 1242.81 426.873C1242.81 419.175 1247.05 415.676 1252.01 415.676C1256.97 415.676 1260.51 419.175 1260.51 427.575C1260.51 495.454 1232.19 524.146 1202.44 524.146C1174.82 524.146 1161.37 503.152 1157.12 477.959C1155.7 470.961 1149.33 470.262 1144.37 477.259C1118.17 513.649 1099.76 524.146 1068.6 524.146C1005.57 524.146 961.665 456.267 961.665 354.797ZM1155 399.584V242.13C1155 200.142 1133.75 174.249 1102.59 174.249C1049.48 174.249 1014.07 240.03 1014.07 344.999C1014.07 440.871 1040.27 491.955 1084.18 491.955C1120.3 491.955 1155 451.367 1155 399.584Z" fill="#1a1616"/>
</g>
<defs>
<filter id="filter0_i_16743_6757" x="0" y="0" width="1294" height="554.466" filterUnits="userSpaceOnUse" color-interpolation-filters="sRGB">
<feFlood flood-opacity="0" result="BackgroundImageFix"/>
<feBlend mode="normal" in="SourceGraphic" in2="BackgroundImageFix" result="shape"/>
<feColorMatrix in="SourceAlpha" type="matrix" values="0 0 0 0 0 0 0 0 0 0 0 0 0 0 0 0 0 0 127 0" result="hardAlpha"/>
<feOffset dy="30.3137"/>
<feGaussianBlur stdDeviation="15.1568"/>
<feComposite in2="hardAlpha" operator="arithmetic" k2="-1" k3="1"/>
<feColorMatrix type="matrix" values="0 0 0 0 0 0 0 0 0 0 0 0 0 0 0 0 0 0 0.1 0"/>
<feBlend mode="normal" in2="shape" result="effect1_innerShadow_16743_6757"/>
</filter>
</defs>
</svg>
